<svg width="35" height="35" viewBox="0 0 35 35" fill="none" xmlns="http://www.w3.org/2000/svg">
<path d="M0 5C0 2.23858 2.23858 0 5 0H30C32.7614 0 35 2.23858 35 5V30C35 32.7614 32.7614 35 30 35H5C2.23858 35 0 32.7614 0 30V5Z" fill="#020202"/>
<path d="M19.875 20.25C19.875 20.6644 19.6093 21 19.2812 21H15.7188C15.3907 21 15.125 20.6644 15.125 20.25V18H8V24.75C8 25.95 8.83125 27 9.78125 27H25.2188C26.1688 27 27 25.95 27 24.75V18H19.875V20.25ZM25.2188 10.5H22.25V8.25C22.25 7.05 21.4187 6 20.4688 6H14.5312C13.5813 6 12.75 7.05 12.75 8.25V10.5H9.78125C8.83125 10.5 8 11.55 8 12.75V16.5H27V12.75C27 11.55 26.1688 10.5 25.2188 10.5ZM19.875 10.5H15.125V9H19.875V10.5Z" fill="white"/>
</svg>
