<svg width="12" height="13" viewBox="0 0 12 13" fill="none" xmlns="http://www.w3.org/2000/svg">
<path d="M5.8409 3.37254L2.00016 7.77939V12.5357C2.00016 12.6588 2.03527 12.7769 2.09778 12.864C2.16029 12.9511 2.24507 13 2.33347 13L4.66787 12.9916C4.75598 12.991 4.84033 12.9418 4.90248 12.8548C4.96462 12.7678 4.99951 12.65 4.99951 12.5272V9.74964C4.99951 9.62649 5.03463 9.50838 5.09713 9.4213C5.15964 9.33422 5.24442 9.2853 5.33282 9.2853H6.66605C6.75445 9.2853 6.83922 9.33422 6.90173 9.4213C6.96424 9.50838 6.99936 9.62649 6.99936 9.74964V12.5252C6.99922 12.5863 7.00774 12.6469 7.02443 12.7034C7.04112 12.7599 7.06565 12.8112 7.09661 12.8545C7.12757 12.8978 7.16436 12.9321 7.20487 12.9555C7.24538 12.9789 7.2888 12.991 7.33266 12.991L9.66623 13C9.75463 13 9.83941 12.9511 9.90192 12.864C9.96442 12.7769 9.99954 12.6588 9.99954 12.5357V7.7762L6.15963 3.37254C6.11449 3.32185 6.05825 3.29421 6.00027 3.29421C5.94228 3.29421 5.88605 3.32185 5.8409 3.37254ZM11.9077 6.36781L10.1662 4.36797V0.348253C10.1662 0.255891 10.1399 0.167311 10.093 0.102001C10.0461 0.0366909 9.98251 0 9.91621 0H8.74964C8.68334 0 8.61975 0.0366909 8.57287 0.102001C8.52599 0.167311 8.49966 0.255891 8.49966 0.348253V2.45547L6.63459 0.317781C6.45561 0.112596 6.23102 0.000410168 5.99922 0.000410168C5.76743 0.000410168 5.54284 0.112596 5.36386 0.317781L0.0907219 6.36781C0.0654088 6.39696 0.0444661 6.43277 0.0290906 6.47319C0.0137152 6.51362 0.00420817 6.55787 0.00111286 6.60342C-0.00198244 6.64896 0.00139461 6.69491 0.0110511 6.73864C0.0207075 6.78237 0.0364541 6.82302 0.0573911 6.85826L0.5886 7.75792C0.60948 7.79329 0.635163 7.82258 0.664177 7.8441C0.693192 7.86562 0.724969 7.87897 0.757689 7.88336C0.79041 7.88775 0.823431 7.88311 0.854863 7.86971C0.886295 7.8563 0.91552 7.83439 0.940865 7.80522L5.8409 2.18268C5.88605 2.13198 5.94228 2.10434 6.00027 2.10434C6.05825 2.10434 6.11449 2.13198 6.15963 2.18268L11.0599 7.80522C11.0852 7.83439 11.1144 7.85633 11.1457 7.86978C11.1771 7.88323 11.2101 7.88794 11.2428 7.88363C11.2755 7.87931 11.3073 7.86607 11.3363 7.84465C11.3653 7.82323 11.391 7.79405 11.4119 7.75879L11.9431 6.85914C11.9641 6.82368 11.9797 6.78283 11.9893 6.73891C11.9988 6.69499 12.002 6.64887 11.9987 6.60322C11.9955 6.55756 11.9857 6.51326 11.9701 6.47286C11.9545 6.43246 11.9333 6.39676 11.9077 6.36781Z" fill="#FFE4F2"/>
</svg>
