<svg width="19" height="20" viewBox="0 0 19 20" fill="none" xmlns="http://www.w3.org/2000/svg">
<path d="M9.2481 5.18853L3.16692 11.9683V19.2856C3.16692 19.4751 3.22252 19.6568 3.32149 19.7908C3.42046 19.9247 3.55469 20 3.69465 20L7.39079 19.9871C7.5303 19.9861 7.66385 19.9104 7.76225 19.7766C7.86065 19.6427 7.91589 19.4615 7.91589 19.2727V14.9994C7.91589 14.81 7.97149 14.6283 8.07046 14.4943C8.16943 14.3603 8.30366 14.2851 8.44363 14.2851H10.5546C10.6945 14.2851 10.8288 14.3603 10.9277 14.4943C11.0267 14.6283 11.0823 14.81 11.0823 14.9994V19.2696C11.0821 19.3636 11.0956 19.4567 11.122 19.5436C11.1484 19.6306 11.1873 19.7096 11.2363 19.7761C11.2853 19.8427 11.3436 19.8955 11.4077 19.9316C11.4718 19.9676 11.5406 19.9862 11.6101 19.9862L15.3049 20C15.4448 20 15.5791 19.9247 15.678 19.7908C15.777 19.6568 15.8326 19.4751 15.8326 19.2856V11.9634L9.75275 5.18853C9.68127 5.11054 9.59223 5.06801 9.50042 5.06801C9.40861 5.06801 9.31957 5.11054 9.2481 5.18853ZM18.8539 9.79663L16.0965 6.71995V0.535774C16.0965 0.393678 16.0548 0.257402 15.9805 0.156925C15.9063 0.0564476 15.8056 0 15.7007 0H13.8536C13.7486 0 13.6479 0.0564476 13.5737 0.156925C13.4995 0.257402 13.4578 0.393678 13.4578 0.535774V3.77765L10.5048 0.488894C10.2214 0.173224 9.86578 0.000631028 9.49877 0.000631028C9.13177 0.000631028 8.77616 0.173224 8.49277 0.488894L0.143643 9.79663C0.103564 9.84147 0.0704047 9.89656 0.0460602 9.95876C0.0217157 10.021 0.00666293 10.089 0.00176203 10.1591C-0.00313887 10.2292 0.00220814 10.2999 0.0174975 10.3671C0.0327869 10.4344 0.057719 10.497 0.0908693 10.5512L0.93195 11.9353C0.96501 11.9897 1.00567 12.0347 1.05161 12.0678C1.09755 12.101 1.14787 12.1215 1.19968 12.1282C1.25148 12.135 1.30377 12.1279 1.35353 12.1072C1.4033 12.0866 1.44957 12.0529 1.4897 12.008L9.2481 3.35796C9.31957 3.27998 9.40861 3.23745 9.50042 3.23745C9.59223 3.23745 9.68127 3.27998 9.75275 3.35796L17.5115 12.008C17.5515 12.0529 17.5977 12.0867 17.6474 12.1074C17.6971 12.1281 17.7493 12.1353 17.8011 12.1287C17.8529 12.122 17.9032 12.1016 17.9491 12.0687C17.9951 12.0357 18.0358 11.9909 18.0689 11.9366L18.91 10.5525C18.9431 10.498 18.9679 10.4351 18.983 10.3675C18.9981 10.3 19.0032 10.229 18.998 10.1588C18.9928 10.0886 18.9774 10.0204 18.9527 9.95824C18.9279 9.89609 18.8944 9.84117 18.8539 9.79663Z" fill="#FF1C92"/>
</svg>
