<svg width="35" height="35" viewBox="0 0 35 35" fill="none" xmlns="http://www.w3.org/2000/svg">
<path d="M0 5C0 2.23858 2.23858 0 5 0H30C32.7614 0 35 2.23858 35 5V30C35 32.7614 32.7614 35 30 35H5C2.23858 35 0 32.7614 0 30V5Z" fill="#FFE4F2"/>
<path d="M17.2481 13.1885L11.1669 19.9683V27.2856C11.1669 27.4751 11.2225 27.6568 11.3215 27.7908C11.4205 27.9247 11.5547 28 11.6947 28L15.3908 27.9871C15.5303 27.9861 15.6639 27.9104 15.7623 27.7766C15.8607 27.6427 15.9159 27.4615 15.9159 27.2727V22.9994C15.9159 22.81 15.9715 22.6283 16.0705 22.4943C16.1694 22.3603 16.3037 22.2851 16.4436 22.2851H18.5546C18.6945 22.2851 18.8288 22.3603 18.9277 22.4943C19.0267 22.6283 19.0823 22.81 19.0823 22.9994V27.2696C19.0821 27.3636 19.0956 27.4567 19.122 27.5436C19.1484 27.6306 19.1873 27.7096 19.2363 27.7761C19.2853 27.8427 19.3436 27.8955 19.4077 27.9316C19.4718 27.9676 19.5406 27.9862 19.6101 27.9862L23.3049 28C23.4448 28 23.5791 27.9247 23.678 27.7908C23.777 27.6568 23.8326 27.4751 23.8326 27.2856V19.9634L17.7527 13.1885C17.6813 13.1105 17.5922 13.068 17.5004 13.068C17.4086 13.068 17.3196 13.1105 17.2481 13.1885ZM26.8539 17.7966L24.0965 14.7199V8.53577C24.0965 8.39368 24.0548 8.2574 23.9805 8.15692C23.9063 8.05645 23.8056 8 23.7007 8H21.8536C21.7486 8 21.6479 8.05645 21.5737 8.15692C21.4995 8.2574 21.4578 8.39368 21.4578 8.53577V11.7777L18.5048 8.48889C18.2214 8.17322 17.8658 8.00063 17.4988 8.00063C17.1318 8.00063 16.7762 8.17322 16.4928 8.48889L8.14364 17.7966C8.10356 17.8415 8.0704 17.8966 8.04606 17.9588C8.02172 18.021 8.00666 18.089 8.00176 18.1591C7.99686 18.2292 8.00221 18.2999 8.0175 18.3671C8.03279 18.4344 8.05772 18.497 8.09087 18.5512L8.93195 19.9353C8.96501 19.9897 9.00567 20.0347 9.05161 20.0678C9.09755 20.101 9.14787 20.1215 9.19968 20.1282C9.25148 20.135 9.30377 20.1279 9.35353 20.1072C9.4033 20.0866 9.44957 20.0529 9.4897 20.008L17.2481 11.358C17.3196 11.28 17.4086 11.2374 17.5004 11.2374C17.5922 11.2374 17.6813 11.28 17.7527 11.358L25.5115 20.008C25.5515 20.0529 25.5977 20.0867 25.6474 20.1074C25.6971 20.1281 25.7493 20.1353 25.8011 20.1287C25.8529 20.122 25.9032 20.1016 25.9491 20.0687C25.9951 20.0357 26.0358 19.9909 26.0689 19.9366L26.91 18.5525C26.9431 18.498 26.9679 18.4351 26.983 18.3675C26.9981 18.3 27.0032 18.229 26.998 18.1588C26.9928 18.0886 26.9774 18.0204 26.9527 17.9582C26.9279 17.8961 26.8944 17.8412 26.8539 17.7966Z" fill="#FF1C92"/>
</svg>
