<svg width="18" height="20" viewBox="0 0 18 20" fill="none" xmlns="http://www.w3.org/2000/svg">
<path fill-rule="evenodd" clip-rule="evenodd" d="M10.9745 0.000366211C11.0175 0.000366211 11.0596 0.00398234 11.1005 0.0109266L11.2369 0.0116662C11.4409 0.0116662 11.6359 0.0946662 11.7779 0.241666L16.8439 5.52067C16.9769 5.65967 17.0519 5.84667 17.0519 6.03967V15.3397C17.0559 17.8087 15.0499 19.8397 12.5809 19.8657L4.3999 19.8667C1.9269 19.8237 -0.0410959 17.7867 0.000904076 15.3267V4.49067C0.0579041 2.00967 2.1069 0.0116662 4.5699 0.0116662L10.8485 0.0109266C10.8894 0.00398234 10.9316 0.000366211 10.9745 0.000366211ZM10.2242 1.51137L4.5729 1.51167C2.9149 1.51167 1.5399 2.85367 1.5009 4.50867V15.3397C1.4719 16.9867 2.7789 18.3387 4.4139 18.3667L4.5609 18.3657H12.5729C14.2149 18.3477 15.5539 16.9907 15.5519 15.3407L15.5512 6.98337L13.5435 6.98437C11.7125 6.97937 10.2245 5.48737 10.2245 3.65937L10.2242 1.51137ZM8.3444 7.71427C8.7584 7.71427 9.0944 8.05027 9.0944 8.46427L9.09424 10.1634L10.7936 10.1641C11.2076 10.1641 11.5436 10.5001 11.5436 10.9141C11.5436 11.3281 11.2076 11.6641 10.7936 11.6641L9.09424 11.6634L9.0944 13.3643C9.0944 13.7783 8.7584 14.1143 8.3444 14.1143C7.9304 14.1143 7.5944 13.7783 7.5944 13.3643L7.59424 11.6634L5.8946 11.6641C5.4806 11.6641 5.1446 11.3281 5.1446 10.9141C5.1446 10.5001 5.4806 10.1641 5.8946 10.1641L7.59424 10.1634L7.5944 8.46427C7.5944 8.05027 7.9304 7.71427 8.3444 7.71427ZM11.7242 2.35237L11.7245 3.65937C11.7245 4.66337 12.5415 5.48137 13.5455 5.48437L14.7282 5.48337L11.7242 2.35237Z" fill="white"/>
</svg>
