<svg width="19" height="21" viewBox="0 0 19 21" fill="none" xmlns="http://www.w3.org/2000/svg">
<path d="M9.5 11.8125C12.4502 11.8125 14.8438 9.16699 14.8438 5.90625C14.8438 2.64551 12.4502 0 9.5 0C6.5498 0 4.15625 2.64551 4.15625 5.90625C4.15625 9.16699 6.5498 11.8125 9.5 11.8125ZM14.25 13.125H12.2053C11.3814 13.5434 10.4648 13.7813 9.5 13.7813C8.53516 13.7813 7.62227 13.5434 6.79473 13.125H4.75C2.12637 13.125 0 15.4752 0 18.375V19.0313C0 20.1182 0.797852 21 1.78125 21H17.2188C18.2022 21 19 20.1182 19 19.0313V18.375C19 15.4752 16.8736 13.125 14.25 13.125Z" fill="#149954"/>
</svg>
