<svg width="35" height="35" viewBox="0 0 35 35" fill="none" xmlns="http://www.w3.org/2000/svg">
<path d="M0 5C0 2.23858 2.23858 0 5 0H30C32.7614 0 35 2.23858 35 5V30C35 32.7614 32.7614 35 30 35H5C2.23858 35 0 32.7614 0 30V5Z" fill="#CEEBDC"/>
<path d="M17.5 18.8125C20.4502 18.8125 22.8438 16.167 22.8438 12.9062C22.8438 9.64551 20.4502 7 17.5 7C14.5498 7 12.1563 9.64551 12.1563 12.9062C12.1563 16.167 14.5498 18.8125 17.5 18.8125ZM22.25 20.125H20.2053C19.3814 20.5434 18.4648 20.7813 17.5 20.7813C16.5352 20.7813 15.6223 20.5434 14.7947 20.125H12.75C10.1264 20.125 8 22.4752 8 25.375V26.0313C8 27.1182 8.79785 28 9.78125 28H25.2188C26.2022 28 27 27.1182 27 26.0313V25.375C27 22.4752 24.8736 20.125 22.25 20.125Z" fill="#149954"/>
</svg>
