<svg width="334" height="344" viewBox="0 0 334 344" fill="none" xmlns="http://www.w3.org/2000/svg">
<path d="M203.706 168.372C168.889 231.129 150.226 283.696 150.226 283.696C109.943 211.674 39.7035 184.586 39.7035 184.586C98.6121 182.414 141.351 213.698 141.351 213.698C181.169 140.491 244.943 67.7021 290.795 42.748C290.795 42.748 237.05 108.27 203.706 168.372Z" fill="url(#paint0_linear_2032_767)"/>
<path d="M329.168 136.298C325.01 119.441 318.223 103.226 309.155 88.3856L299.783 94.2203C308.447 107.978 315.013 123.069 319.133 138.831C323.204 154.59 324.838 170.998 323.986 187.3C322.287 219.802 310.279 252.304 289.834 277.711C284.719 284.118 279.177 290.196 273.159 295.785C267.113 301.339 260.667 306.457 253.88 311.092L248.714 314.455C208.07 340.916 157.388 343.78 111.952 329.842C109.974 329.235 108.06 328.451 106.129 327.71C92.5892 322.479 79.8614 315.398 68.1692 306.804C61.5127 301.86 55.2771 296.36 49.4272 290.48C31.7782 272.738 18.9503 250.784 10.7958 227.219C8.25386 219.296 6.24042 211.196 4.87697 202.973C3.59976 194.738 2.88009 186.418 2.75934 178.073C2.62271 161.388 5.03153 144.666 9.96507 128.692C14.8862 112.716 22.3169 97.4999 31.8907 83.7515C41.4584 69.9983 53.1609 57.712 66.4635 47.4668C71.5606 43.5379 76.8943 39.9126 82.424 36.6096C104.766 24.0542 124.084 18.8447 129.936 19.3511C129.936 19.3511 98.3377 28.591 78.747 47.7125C78.747 47.7125 88.5975 62.9526 108.159 59.2818C131.233 54.9555 133.717 31.1364 164.519 17.9987C164.519 17.9987 142.211 -4.047 112.768 0.658842C95.2906 3.45337 75.1424 19.2338 74.4179 38.1814C74.3744 39.1557 74.4013 40.0969 74.4821 41.009C71.6109 42.8907 68.795 44.8579 66.0467 46.9176C52.5488 57.022 40.6014 69.2193 30.7639 82.9552C20.921 96.6857 13.1964 111.957 7.99166 128.069C2.77452 144.177 0.0924609 161.114 0 178.077C0.00621006 186.561 0.621697 195.041 1.80989 203.45C3.08433 211.849 5.02394 220.14 7.51072 228.269C14.8013 252.099 28.5918 275.524 46.2139 293.607C52.1141 299.704 58.4208 305.424 65.1697 310.589C78.5862 320.858 93.9775 329.835 110.127 335.051C159.962 351.148 213.683 345.457 258.089 317.408C265.263 312.654 272.093 307.381 278.516 301.639C284.91 295.862 290.822 289.56 296.29 282.896C301.787 276.247 306.655 269.088 311.02 261.644C313.267 257.955 315.191 254.084 317.158 250.24C326.736 231.522 331.874 209.082 333.627 187.908C334.771 170.637 333.282 153.168 329.168 136.298Z" fill="url(#paint1_linear_2032_767)"/>
<defs>
<linearGradient id="paint0_linear_2032_767" x1="39.7032" y1="163.222" x2="290.795" y2="163.222" gradientUnits="userSpaceOnUse">
<stop stop-color="#4FC646"/>
<stop offset="1" stop-color="#3FB06B"/>
</linearGradient>
<linearGradient id="paint1_linear_2032_767" x1="1.29783" y1="157.756" x2="333.279" y2="191.689" gradientUnits="userSpaceOnUse">
<stop stop-color="#4FC646"/>
<stop offset="1" stop-color="#3FB06B"/>
</linearGradient>
</defs>
</svg>
