<svg width="12" height="12" viewBox="0 0 12 12" fill="none" xmlns="http://www.w3.org/2000/svg">
<path d="M7.5 8.14286C7.5 8.37964 7.33219 8.57143 7.125 8.57143H4.875C4.66781 8.57143 4.5 8.37964 4.5 8.14286V6.85714H0V10.7143C0 11.4 0.525 12 1.125 12H10.875C11.475 12 12 11.4 12 10.7143V6.85714H7.5V8.14286ZM10.875 2.57143H9V1.28571C9 0.6 8.475 0 7.875 0H4.125C3.525 0 3 0.6 3 1.28571V2.57143H1.125C0.525 2.57143 0 3.17143 0 3.85714V6H12V3.85714C12 3.17143 11.475 2.57143 10.875 2.57143ZM7.5 2.57143H4.5V1.71429H7.5V2.57143Z" fill="white"/>
</svg>
